<svg viewBox="0 0 512 512" class="fl-svg" style="transform: scale(0.5);"><svg xmlns="http://www.w3.org/2000/svg" width="512" height="512" viewBox="0 0 512 512" data-svgdocument="" id="_sNJbB0olGQ9wXNBqcUy6U" class="fl-svgdocument" x="0" y="0" xmlns:xlink="http://www.w3.org/1999/xlink" style="overflow: hidden;"><defs id="_dmF63MJCSPdjPBpukcsAl" transform="matrix(1.0215426683425903, 0, 0, 1.0215426683425903, -0.000013395512723946013, -7.578919887542725)"></defs><path id="_6MPHG1sevqtgf3L4HujLx" d="M35,65.833c0-8.587,3.535-16.36,9.219-21.956c-3.063-1.406-6.458-2.21-10.052-2.21C20.82,41.667,10,52.487,10,65.833  C10,79.18,20.82,90,34.167,90c3.594,0,6.988-0.804,10.052-2.21C38.535,82.194,35,74.421,35,65.833z" stroke="none" fill="#000040" transform="matrix(1.049243688583374, 1.086560845375061, -1.086560845375061, 1.049243688583374, 158.09347534179688, 149.28121948242188)"></path><path id="_UwTGw_7hHC6DiiaZ34aOB" d="M65.833,65c-8.587,0-16.36-3.535-21.956-9.222c-1.406,3.066-2.21,6.461-2.21,10.055C41.667,79.18,52.487,90,65.833,90  C79.18,90,90,79.18,90,65.833c0-3.594-0.804-6.988-2.21-10.055C82.194,61.465,74.421,65,65.833,65z" stroke="none" fill="#0000ff" transform="matrix(1.049243688583374, 1.086560845375061, -1.086560845375061, 1.049243688583374, 157.5152130126953, 148.43881225585938)"></path><path id="_fXbuTUJzsYN1P7VrFDvTy" d="M65.833,10c-3.594,0-6.988,0.804-10.055,2.21C61.465,17.806,65,25.579,65,34.167c0,8.587-3.535,16.36-9.222,21.956  c3.066,1.406,6.461,2.21,10.055,2.21C79.18,58.333,90,47.513,90,34.167C90,20.82,79.18,10,65.833,10z" stroke="none" fill="#0000c0" transform="matrix(1.049243688583374, 1.086560845375061, -1.086560845375061, 1.049243688583374, 156.55264282226562, 149.13418579101562)"></path><path id="_Gv_eQ6BGYVEs_FudcIAac" d="M34.167,35c8.587,0,16.36,3.535,21.956,9.219c1.406-3.063,2.21-6.458,2.21-10.052C58.333,20.82,47.513,10,34.167,10  C20.82,10,10,20.82,10,34.167c0,3.594,0.804,6.988,2.21,10.052C17.806,38.535,25.579,35,34.167,35z" stroke="none" fill="#000080" transform="matrix(1.049243688583374, 1.086560845375061, -1.086560845375061, 1.049243688583374, 157.36817932128906, 149.98074340820312)"></path><path text="¡Buscarr!" text-anchor="start" font-size="100" letter-spacing="0" side="left" offset="0" dx="0" dy="0" space="preserve" href="" font-family="Teko" font-scale="contain" transform="matrix(0.7713294625282288, 0, 0, 0.7713294625282288, 236.26231384277344, 274.8204345703125)" x="0" y="0" fill="#354a59" data-fl-textpath="" id="_tXHbUZ5z8OFLhSWaM5pmi" font-weight="400" font-style="normal" d="M 14.2-28.4L 15.9 13.8L 5 13.8L 6.7-28.4L 14.2-28.4ZM 15.4-36.5L 5.3-36.5L 5.3-48.8L 15.4-48.8L 15.4-36.5ZM 48.10000000000001-38.3L 48.10000000000001-38.3L 48.10000000000001-52.6Q 48.10000000000001-54.4  47.50000000000001-54.95Q 46.900000000000006-55.5  45.10000000000001-55.5L 45.10000000000001-55.5L 35.10000000000001-55.5L 35.10000000000001-35.4L 45.10000000000001-35.4Q 46.900000000000006-35.4  47.50000000000001-35.95Q 48.10000000000001-36.5  48.10000000000001-38.3ZM 48.10000000000001-10L 48.10000000000001-10L 48.10000000000001-25.4Q 48.10000000000001-27.2  47.50000000000001-27.75Q 46.900000000000006-28.3  45.10000000000001-28.3L 45.10000000000001-28.3L 35.10000000000001-28.3L 35.10000000000001-7.1L 45.10000000000001-7.1Q 46.900000000000006-7.1  47.50000000000001-7.65Q 48.10000000000001-8.2  48.10000000000001-10ZM 26.100000000000005 0L 26.100000000000005-62.6L 47.800000000000004-62.6Q 57.2-62.6  57.2-53.8L 57.2-53.8L 57.2-37.9Q 57.2-32.6  53.2-31.7L 53.2-31.7Q 57.2-30.7  57.2-25.9L 57.2-25.9L 57.2-8.8Q 57.2 0  47.800000000000004 0L 47.800000000000004 0L 26.100000000000005 0ZM 84.9-10.8L 84.9-48.8L 93.9-48.8L 93.9 0L 84.9 0L 84.9-3.9Q 83.60000000000001 0  78.70000000000002 0L 78.70000000000002 0L 75.10000000000001 0Q 66.10000000000001 0  66.10000000000001-8.8L 66.10000000000001-8.8L 66.10000000000001-48.8L 75.10000000000001-48.8L 75.10000000000001-10.2Q 75.10000000000001-8.4  75.70000000000002-7.85Q 76.30000000000001-7.3  78.10000000000001-7.3L 78.10000000000001-7.3L 81.60000000000001-7.3Q 83.4-7.3  84.15-8.1Q 84.9-8.9  84.9-10.8L 84.9-10.8ZM 119.00000000000001-9.8L 119.00000000000001-9.8L 119.00000000000001-17.9Q 119.00000000000001-19.7  118.4-20.25Q 117.80000000000001-20.8  116.00000000000001-20.8L 116.00000000000001-20.8L 110.9-20.8Q 101.60000000000001-20.8  101.60000000000001-29.6L 101.60000000000001-29.6L 101.60000000000001-39.9Q 101.60000000000001-48.8  110.9-48.8L 110.9-48.8L 118.20000000000002-48.8Q 127.60000000000001-48.8  127.60000000000001-39.9L 127.60000000000001-39.9L 127.60000000000001-35.2L 118.80000000000001-35.2L 118.80000000000001-39Q 118.80000000000001-40.8  118.20000000000002-41.35Q 117.60000000000001-41.9  115.80000000000001-41.9L 115.80000000000001-41.9L 113.4-41.9Q 111.60000000000001-41.9  111.00000000000001-41.35Q 110.4-40.8  110.4-39L 110.4-39L 110.4-30.6Q 110.4-28.8  111.00000000000001-28.25Q 111.60000000000001-27.7  113.4-27.7L 113.4-27.7L 118.60000000000001-27.7Q 127.80000000000001-27.7  127.80000000000001-18.8L 127.80000000000001-18.8L 127.80000000000001-8.8Q 127.80000000000001 0  118.50000000000001 0L 118.50000000000001 0L 111.10000000000001 0Q 101.80000000000001 0  101.80000000000001-8.8L 101.80000000000001-8.8L 101.80000000000001-13.6L 110.60000000000001-13.6L 110.60000000000001-9.8Q 110.60000000000001-8  111.20000000000002-7.45Q 111.80000000000001-6.9  113.60000000000001-6.9L 113.60000000000001-6.9L 116.00000000000001-6.9Q 117.80000000000001-6.9  118.4-7.45Q 119.00000000000001-8  119.00000000000001-9.8ZM 163.10000000000002-39.9L 163.10000000000002-33.4L 154.20000000000002-33.4L 154.20000000000002-38.6Q 154.20000000000002-40.4  153.60000000000002-40.95Q 153.00000000000003-41.5  151.20000000000002-41.5L 151.20000000000002-41.5L 146.90000000000003-41.5Q 145.10000000000002-41.5  144.50000000000003-40.95Q 143.90000000000003-40.4  143.90000000000003-38.6L 143.90000000000003-38.6L 143.90000000000003-10.2Q 143.90000000000003-8.4  144.50000000000003-7.85Q 145.10000000000002-7.3  146.90000000000003-7.3L 146.90000000000003-7.3L 151.20000000000002-7.3Q 153.00000000000003-7.3  153.60000000000002-7.85Q 154.20000000000002-8.4  154.20000000000002-10.2L 154.20000000000002-10.2L 154.20000000000002-15.4L 163.10000000000002-15.4L 163.10000000000002-8.8Q 163.10000000000002 0  153.70000000000002 0L 153.70000000000002 0L 144.20000000000002 0Q 134.90000000000003 0  134.90000000000003-8.8L 134.90000000000003-8.8L 134.90000000000003-39.9Q 134.90000000000003-48.8  144.20000000000002-48.8L 144.20000000000002-48.8L 153.70000000000002-48.8Q 163.10000000000002-48.8  163.10000000000002-39.9L 163.10000000000002-39.9ZM 188.8-44.9L 188.8-48.8L 197.8-48.8L 197.8 0L 188.8 0L 188.8-3.9Q 187.50000000000003 0  182.60000000000002 0L 182.60000000000002 0L 179.00000000000003 0Q 170.00000000000003 0  170.00000000000003-8.8L 170.00000000000003-8.8L 170.00000000000003-39.9Q 170.00000000000003-48.8  179.00000000000003-48.8L 179.00000000000003-48.8L 182.60000000000002-48.8Q 187.50000000000003-48.8  188.8-44.9L 188.8-44.9ZM 182.00000000000003-7.3L 182.00000000000003-7.3L 185.50000000000003-7.3Q 187.3-7.3  188.05-8.1Q 188.8-8.9  188.8-10.8L 188.8-10.8L 188.8-38Q 188.8-39.9  188.05-40.7Q 187.3-41.5  185.50000000000003-41.5L 185.50000000000003-41.5L 182.00000000000003-41.5Q 180.20000000000002-41.5  179.60000000000002-40.95Q 179.00000000000003-40.4  179.00000000000003-38.6L 179.00000000000003-38.6L 179.00000000000003-10.2Q 179.00000000000003-8.4  179.60000000000002-7.85Q 180.20000000000002-7.3  182.00000000000003-7.3ZM 223.50000000000003-48.9L 223.50000000000003-48.9L 225.50000000000003-48.9L 225.50000000000003-41.1L 221.9-41.1Q 215.60000000000002-41.1  215.60000000000002-33.7L 215.60000000000002-33.7L 215.60000000000002 0L 206.60000000000002 0L 206.60000000000002-48.8L 215.60000000000002-48.8L 215.60000000000002-42.8Q 216.4-45.4  218.45000000000002-47.15Q 220.50000000000003-48.9  223.50000000000003-48.9ZM 247.30000000000004-48.9L 247.30000000000004-48.9L 249.30000000000004-48.9L 249.30000000000004-41.1L 245.70000000000002-41.1Q 239.40000000000003-41.1  239.40000000000003-33.7L 239.40000000000003-33.7L 239.40000000000003 0L 230.40000000000003 0L 230.40000000000003-48.8L 239.40000000000003-48.8L 239.40000000000003-42.8Q 240.20000000000002-45.4  242.25000000000003-47.15Q 244.30000000000004-48.9  247.30000000000004-48.9ZM 265.20000000000005 0L 255.10000000000008 0L 255.10000000000008-12.3L 265.20000000000005-12.3L 265.20000000000005 0ZM 256.50000000000006-20.4L 254.80000000000007-62.6L 265.70000000000005-62.6L 264.00000000000006-20.4L 256.50000000000006-20.4Z"></path></svg></svg>