<svg viewBox="0 0 512 512" class="fl-svg" style="transform: scale(0.5);"><svg xmlns="http://www.w3.org/2000/svg" width="512" height="512" viewBox="0 0 512 512" data-svgdocument="" id="_sNJbB0olGQ9wXNBqcUy6U" class="fl-svgdocument" x="0" y="0" style="overflow: hidden;" xmlns:xlink="http://www.w3.org/1999/xlink"><defs id="_dmF63MJCSPdjPBpukcsAl" transform="matrix(1.0215426683425903, 0, 0, 1.0215426683425903, -0.000013395512723946013, -7.578919887542725)"></defs><path id="_6MPHG1sevqtgf3L4HujLx" d="M35,65.833c0-8.587,3.535-16.36,9.219-21.956c-3.063-1.406-6.458-2.21-10.052-2.21C20.82,41.667,10,52.487,10,65.833  C10,79.18,20.82,90,34.167,90c3.594,0,6.988-0.804,10.052-2.21C38.535,82.194,35,74.421,35,65.833z" stroke="none" fill="#000040" transform="matrix(2.9730064868927, 3.0787436962127686, -3.0787436962127686, 2.9730064868927, 263.4698133468628, -46.385080337524386)"></path><path id="_UwTGw_7hHC6DiiaZ34aOB" d="M65.833,65c-8.587,0-16.36-3.535-21.956-9.222c-1.406,3.066-2.21,6.461-2.21,10.055C41.667,79.18,52.487,90,65.833,90  C79.18,90,90,79.18,90,65.833c0-3.594-0.804-6.988-2.21-10.055C82.194,61.465,74.421,65,65.833,65z" stroke="none" fill="#0000ff" transform="matrix(2.9730064868927, 3.0787436962127686, -3.0787436962127686, 2.9730064868927, 261.83132457733154, -48.77202033996579)"></path><path id="_fXbuTUJzsYN1P7VrFDvTy" d="M65.833,10c-3.594,0-6.988,0.804-10.055,2.21C61.465,17.806,65,25.579,65,34.167c0,8.587-3.535,16.36-9.222,21.956  c3.066,1.406,6.461,2.21,10.055,2.21C79.18,58.333,90,47.513,90,34.167C90,20.82,79.18,10,65.833,10z" stroke="none" fill="#0000c0" transform="matrix(2.9730064868927, 3.0787436962127686, -3.0787436962127686, 2.9730064868927, 259.10390758514404, -46.801698684692354)"></path><path id="_Gv_eQ6BGYVEs_FudcIAac" d="M34.167,35c8.587,0,16.36,3.535,21.956,9.219c1.406-3.063,2.21-6.458,2.21-10.052C58.333,20.82,47.513,10,34.167,10  C20.82,10,10,20.82,10,34.167c0,3.594,0.804,6.988,2.21,10.052C17.806,38.535,25.579,35,34.167,35z" stroke="none" fill="#000080" transform="matrix(2.9730064868927, 3.0787436962127686, -3.0787436962127686, 2.9730064868927, 261.41472911834717, -44.402997970581026)"></path></svg></svg>